<?xml version="1.0" encoding="utf-8"?>
<!-- Generator: Adobe Illustrator 17.1.0, SVG Export Plug-In . SVG Version: 6.00 Build 0)  -->
<!DOCTYPE svg PUBLIC "-//W3C//DTD SVG 1.1//EN" "http://www.w3.org/Graphics/SVG/1.1/DTD/svg11.dtd">
<svg version="1.1" id="Layer_1" xmlns="http://www.w3.org/2000/svg" xmlns:xlink="http://www.w3.org/1999/xlink" x="0px" y="0px"
	 viewBox="0 0 479.57 136.559" enable-background="new 0 0 479.57 136.559" xml:space="preserve">
<g>
	<path fill="#4ABA74" d="M61.299,52.93c-8.349,0-15.14,6.791-15.14,15.139c0,8.348,6.791,15.14,15.14,15.14
		c8.348,0,15.139-6.791,15.139-15.14C76.437,59.722,69.646,52.93,61.299,52.93z M61.299,78.418c-5.707,0-10.35-4.642-10.35-10.349
		c0-5.706,4.642-10.348,10.35-10.348c5.706,0,10.348,4.642,10.348,10.348C71.647,73.776,67.004,78.418,61.299,78.418z"/>
	<path fill="#4ABA74" d="M113.568,33.06L65.191,5.13c-2.481-1.433-5.692-1.433-8.174,0L8.641,33.06
		c-2.521,1.456-4.087,4.168-4.087,7.08V96c0,2.911,1.566,5.624,4.087,7.079l48.376,27.931c1.241,0.716,2.654,1.095,4.087,1.095
		c1.433,0,2.846-0.378,4.087-1.095l48.376-27.93c2.521-1.456,4.087-4.168,4.087-7.079v-55.86
		C117.655,37.228,116.089,34.515,113.568,33.06z M43.449,48.045h3.556c0-0.001,0-0.002,0.001-0.003l1.858-4.138
		c0.527-1.174,1.694-1.929,2.98-1.929h18.907c1.286,0,2.453,0.755,2.98,1.929l1.858,4.138c0,0.001,0,0.002,0.001,0.003h14.759
		c3.004,0,5.439,2.435,5.439,5.439v29.172c0,3.004-2.435,5.439-5.439,5.439h-58.49c-3.004,0-5.439-2.435-5.439-5.439V53.483
		c0-3.004,2.435-5.439,5.439-5.439h3.627"/>
</g>
<g>
	<g>
		<path fill="#353D35" d="M152.656,47.966c0-2.592,1.368-3.96,3.96-3.96h5.617c2.232,0,3.672,0.792,4.752,2.664l12.673,21.386
			c2.016,3.384,4.32,8.785,4.32,8.785h0.144c0,0-0.576-5.545-0.576-8.785V47.966c0-2.592,1.368-3.96,3.96-3.96h4.681
			c2.592,0,3.96,1.368,3.96,3.96v43.563c0,2.592-1.368,3.96-3.96,3.96h-5.617c-2.16,0-3.6-0.792-4.68-2.664l-12.745-21.314
			c-2.016-3.384-4.32-8.785-4.32-8.785h-0.144c0,0,0.576,5.544,0.576,8.785v20.018c0,2.592-1.368,3.96-3.96,3.96h-4.681
			c-2.592,0-3.96-1.368-3.96-3.96V47.966z"/>
		<path fill="#353D35" d="M220.57,57.542c11.737,0,21.098,7.849,21.098,19.514c0,11.593-9.36,19.298-21.025,19.298
			s-21.026-7.705-21.026-19.298C199.616,65.391,208.977,57.542,220.57,57.542z M220.642,85.985c4.536,0,8.425-3.384,8.425-8.929
			c0-5.617-3.889-9.145-8.425-9.145c-4.537,0-8.425,3.528-8.425,9.145C212.217,82.6,216.105,85.985,220.642,85.985z"/>
		<path fill="#353D35" d="M261.896,57.542c7.489,0,9.721,3.672,9.721,3.672h0.145c0,0-0.072-0.72-0.072-1.656V47.966
			c0-2.592,1.368-3.96,3.96-3.96h4.537c2.592,0,3.96,1.368,3.96,3.96v43.563c0,2.592-1.368,3.96-3.96,3.96h-3.744
			c-2.593,0-3.961-1.224-3.961-3.6v-0.432c0-0.144,0.072-0.504,0.072-0.504h-0.145c0,0-3.096,5.401-10.729,5.401
			c-10.081,0-16.705-7.921-16.705-19.442C244.975,65.175,252.032,57.542,261.896,57.542z M264.777,86.057
			c3.744,0,7.272-2.736,7.272-9.145c0-4.464-2.376-8.857-7.272-8.857c-3.889,0-7.273,3.168-7.273,8.857
			C257.503,82.456,260.456,86.057,264.777,86.057z"/>
		<path fill="#353D35" d="M306.768,57.542c11.017,0,17.138,7.777,17.138,17.713c0,1.944-1.729,4.104-4.177,4.104h-19.514
			c0.937,4.537,4.681,6.625,8.641,6.625c2.521,0,4.896-0.792,6.769-1.728c2.377-1.08,4.104-0.792,5.329,1.512l1.008,1.872
			c1.152,2.232,0.792,4.176-1.368,5.4c-2.664,1.512-7.057,3.312-12.745,3.312c-13.249,0-20.378-9.577-20.378-19.442
			C287.47,66.039,294.815,57.542,306.768,57.542z M311.592,72.232c0-3.024-1.944-5.545-5.112-5.545
			c-3.601,0-5.328,2.592-5.977,5.545H311.592z"/>
		<path fill="#353D35" d="M327.151,85.769l2.232-3.24c1.439-2.088,3.096-2.232,5.472-0.936c1.656,0.864,4.896,3.168,9.361,3.168
			c3.744,0,5.473-1.584,5.473-3.6c0-7.273-22.754-6.121-22.754-22.25c0-9.505,7.92-15.77,18.361-15.77
			c5.977,0,11.449,2.088,13.897,3.816c2.088,1.512,2.304,3.312,1.224,5.4l-1.729,3.384c-1.439,2.809-3.384,2.376-5.4,1.368
			c-2.376-1.152-4.752-2.376-8.137-2.376c-3.96,0-5.616,1.584-5.616,3.6c0,7.489,22.754,5.688,22.754,21.962
			c0,8.641-6.48,16.058-18.073,16.058c-7.201,0-13.609-2.953-16.346-5.113C326.359,90.017,325.279,88.433,327.151,85.769z"/>
		<path fill="#353D35" d="M365.615,47.966c0-2.592,1.368-3.96,3.961-3.96h4.536c2.592,0,3.96,1.368,3.96,3.96v12.313
			c0,1.872-0.144,3.168-0.144,3.168h0.144c2.089-3.672,6.409-5.904,11.306-5.904c7.488,0,13.32,3.456,13.32,13.897v20.09
			c0,2.592-1.368,3.96-3.96,3.96h-4.536c-2.593,0-3.961-1.368-3.961-3.96V73.743c0-3.456-1.368-4.896-4.104-4.896
			c-5.4,0-8.064,4.248-8.064,9.937v12.745c0,2.592-1.368,3.96-3.96,3.96h-4.536c-2.593,0-3.961-1.368-3.961-3.96V47.966z"/>
		<path fill="#353D35" d="M427.4,57.542c11.737,0,21.098,7.849,21.098,19.514c0,11.593-9.36,19.298-21.025,19.298
			s-21.026-7.705-21.026-19.298C406.446,65.391,415.807,57.542,427.4,57.542z M427.472,85.985c4.536,0,8.425-3.384,8.425-8.929
			c0-5.617-3.889-9.145-8.425-9.145c-4.537,0-8.425,3.528-8.425,9.145C419.047,82.6,422.935,85.985,427.472,85.985z"/>
		<path fill="#353D35" d="M454.694,68.775h-1.08c-2.521,0-3.889-1.368-3.889-3.96v-1.8c0-2.592,1.368-3.96,3.961-3.96h1.368v-6.697
			c0-2.592,1.368-3.96,3.96-3.96h4.177c2.592,0,3.96,1.368,3.96,3.96v6.697h3.816c2.593,0,3.961,1.368,3.961,3.96v1.8
			c0,2.592-1.368,3.96-3.889,3.96h-3.889v11.233c0,3.168,2.088,4.393,4.32,4.681c2.881,0.36,3.961,1.224,3.961,3.96v3.241
			c0,2.952-1.801,3.96-5.112,3.96c-5.473,0-15.626-2.52-15.626-13.537V68.775z"/>
	</g>
</g>
</svg>
